<svg id="wave" style="transform:rotate(0deg); transition: 0.3s" viewBox="0 0 1440 490" version="1.1" xmlns="http://www.w3.org/2000/svg"><defs><linearGradient id="sw-gradient-0" x1="0" x2="0" y1="1" y2="0"><stop stop-color="rgba(13, 110, 253, 0)" offset="0%"></stop><stop stop-color="rgba(13, 110, 253, 1)" offset="100%"></stop></linearGradient></defs><path style="transform:translate(0, 0px); opacity:1" fill="url(#sw-gradient-0)" d="M0,147L80,179.7C160,212,320,278,480,269.5C640,261,800,180,960,196C1120,212,1280,327,1440,367.5C1600,408,1760,376,1920,375.7C2080,376,2240,408,2400,383.8C2560,359,2720,278,2880,277.7C3040,278,3200,359,3360,334.8C3520,310,3680,180,3840,130.7C4000,82,4160,114,4320,122.5C4480,131,4640,114,4800,122.5C4960,131,5120,163,5280,187.8C5440,212,5600,229,5760,236.8C5920,245,6080,245,6240,261.3C6400,278,6560,310,6720,326.7C6880,343,7040,343,7200,343C7360,343,7520,343,7680,326.7C7840,310,8000,278,8160,253.2C8320,229,8480,212,8640,204.2C8800,196,8960,196,9120,179.7C9280,163,9440,131,9600,114.3C9760,98,9920,98,10080,138.8C10240,180,10400,261,10560,285.8C10720,310,10880,278,11040,285.8C11200,294,11360,343,11440,367.5L11520,392L11520,490L11440,490C11360,490,11200,490,11040,490C10880,490,10720,490,10560,490C10400,490,10240,490,10080,490C9920,490,9760,490,9600,490C9440,490,9280,490,9120,490C8960,490,8800,490,8640,490C8480,490,8320,490,8160,490C8000,490,7840,490,7680,490C7520,490,7360,490,7200,490C7040,490,6880,490,6720,490C6560,490,6400,490,6240,490C6080,490,5920,490,5760,490C5600,490,5440,490,5280,490C5120,490,4960,490,4800,490C4640,490,4480,490,4320,490C4160,490,4000,490,3840,490C3680,490,3520,490,3360,490C3200,490,3040,490,2880,490C2720,490,2560,490,2400,490C2240,490,2080,490,1920,490C1760,490,1600,490,1440,490C1280,490,1120,490,960,490C800,490,640,490,480,490C320,490,160,490,80,490L0,490Z"></path><defs><linearGradient id="sw-gradient-1" x1="0" x2="0" y1="1" y2="0"><stop stop-color="rgba(13, 110, 253, 0.67)" offset="0%"></stop><stop stop-color="rgba(13, 110, 253, 0.77)" offset="100%"></stop></linearGradient></defs><path style="transform:translate(0, 50px); opacity:0.9" fill="url(#sw-gradient-1)" d="M0,245L80,253.2C160,261,320,278,480,245C640,212,800,131,960,106.2C1120,82,1280,114,1440,147C1600,180,1760,212,1920,204.2C2080,196,2240,147,2400,106.2C2560,65,2720,33,2880,49C3040,65,3200,131,3360,155.2C3520,180,3680,163,3840,187.8C4000,212,4160,278,4320,294C4480,310,4640,278,4800,261.3C4960,245,5120,245,5280,220.5C5440,196,5600,147,5760,122.5C5920,98,6080,98,6240,138.8C6400,180,6560,261,6720,245C6880,229,7040,114,7200,114.3C7360,114,7520,229,7680,277.7C7840,327,8000,310,8160,269.5C8320,229,8480,163,8640,155.2C8800,147,8960,196,9120,253.2C9280,310,9440,376,9600,392C9760,408,9920,376,10080,302.2C10240,229,10400,114,10560,98C10720,82,10880,163,11040,220.5C11200,278,11360,310,11440,326.7L11520,343L11520,490L11440,490C11360,490,11200,490,11040,490C10880,490,10720,490,10560,490C10400,490,10240,490,10080,490C9920,490,9760,490,9600,490C9440,490,9280,490,9120,490C8960,490,8800,490,8640,490C8480,490,8320,490,8160,490C8000,490,7840,490,7680,490C7520,490,7360,490,7200,490C7040,490,6880,490,6720,490C6560,490,6400,490,6240,490C6080,490,5920,490,5760,490C5600,490,5440,490,5280,490C5120,490,4960,490,4800,490C4640,490,4480,490,4320,490C4160,490,4000,490,3840,490C3680,490,3520,490,3360,490C3200,490,3040,490,2880,490C2720,490,2560,490,2400,490C2240,490,2080,490,1920,490C1760,490,1600,490,1440,490C1280,490,1120,490,960,490C800,490,640,490,480,490C320,490,160,490,80,490L0,490Z"></path></svg>